<?xml version="1.0" encoding="UTF-8"?>
<svg xmlns="http://www.w3.org/2000/svg" xmlns:xlink="http://www.w3.org/1999/xlink" width="20px" height="20px" viewBox="0 0 20 20" version="1.1">
<g id="surface1">
<path style=" stroke:none;fill-rule:nonzero;fill:rgb(0%,0%,0%);fill-opacity:1;" d="M 9.296875 4.539062 C 8.929688 5.875 8.609375 7 8.585938 7.046875 C 8.554688 7.101562 7.960938 6.8125 7.03125 6.296875 C 6.203125 5.835938 5.515625 5.476562 5.5 5.492188 C 5.484375 5.507812 5.84375 6.195312 6.296875 7.023438 C 6.75 7.851562 7.109375 8.539062 7.085938 8.5625 C 7.070312 8.585938 5.984375 8.898438 4.679688 9.265625 C 3.375 9.625 2.25 9.945312 2.1875 9.96875 C 2.078125 10.015625 2.9375 10.273438 6.039062 11.125 C 6.625 11.289062 7.109375 11.453125 7.109375 11.484375 C 7.109375 11.515625 6.742188 12.203125 6.289062 13.007812 C 5.84375 13.820312 5.484375 14.5 5.5 14.515625 C 5.523438 14.53125 6.203125 14.164062 7.023438 13.710938 C 7.851562 13.25 8.539062 12.882812 8.554688 12.90625 C 8.570312 12.921875 8.898438 14.054688 9.273438 15.414062 C 9.648438 16.773438 9.976562 17.890625 10 17.890625 C 10.023438 17.890625 10.351562 16.765625 10.734375 15.390625 C 11.3125 13.3125 11.453125 12.890625 11.554688 12.929688 C 11.6875 12.984375 13.9375 14.21875 14.367188 14.476562 C 14.515625 14.570312 14.617188 14.609375 14.59375 14.5625 C 13.695312 12.976562 12.875 11.46875 12.90625 11.445312 C 12.921875 11.429688 14.054688 11.101562 15.414062 10.726562 C 16.773438 10.351562 17.890625 10.023438 17.890625 10 C 17.890625 9.976562 16.796875 9.664062 15.460938 9.296875 C 14.132812 8.929688 13 8.609375 12.953125 8.585938 C 12.90625 8.554688 13.203125 7.945312 13.710938 7.03125 C 14.171875 6.210938 14.53125 5.515625 14.507812 5.5 C 14.492188 5.484375 13.820312 5.835938 13.007812 6.289062 C 12.203125 6.742188 11.523438 7.109375 11.484375 7.109375 C 11.4375 7.109375 11.15625 6.171875 10.335938 3.1875 C 10.171875 2.59375 10.023438 2.109375 10 2.109375 C 9.976562 2.109375 9.664062 3.203125 9.296875 4.539062 Z M 10.664062 6.75 L 11.265625 8.765625 L 10.046875 10 L 12.695312 10.015625 L 15.351562 10.039062 L 11.242188 11.273438 L 10.625 10.664062 L 10 10.046875 L 9.984375 12.695312 L 9.960938 15.34375 L 9.351562 13.320312 L 8.75 11.296875 L 9.375 10.664062 L 10 10.039062 L 10 7.351562 C 10 5.867188 10.015625 4.679688 10.03125 4.695312 C 10.046875 4.710938 10.335938 5.632812 10.664062 6.75 Z M 7.578125 7.148438 C 8.03125 7.398438 8.40625 7.617188 8.421875 7.625 C 8.4375 7.632812 8.421875 7.804688 8.398438 8 C 8.34375 8.335938 8.328125 8.359375 8.015625 8.421875 C 7.84375 8.460938 7.671875 8.476562 7.648438 8.460938 C 7.59375 8.4375 6.640625 6.742188 6.640625 6.671875 C 6.640625 6.648438 6.664062 6.648438 6.703125 6.664062 C 6.734375 6.679688 7.125 6.898438 7.578125 7.148438 Z M 13 7.320312 C 12.328125 8.585938 12.398438 8.507812 11.992188 8.414062 C 11.664062 8.335938 11.632812 8.3125 11.59375 8.03125 C 11.5625 7.875 11.546875 7.710938 11.546875 7.679688 C 11.554688 7.617188 13.1875 6.664062 13.304688 6.648438 C 13.34375 6.640625 13.203125 6.945312 13 7.320312 Z M 9.335938 9.375 L 9.960938 10 L 7.304688 9.992188 C 5.84375 9.992188 4.6875 9.976562 4.726562 9.953125 C 4.8125 9.921875 8.609375 8.765625 8.671875 8.757812 C 8.695312 8.75 8.992188 9.03125 9.335938 9.375 Z M 8.335938 11.671875 C 8.351562 11.6875 8.382812 11.851562 8.40625 12.039062 L 8.453125 12.390625 L 7.578125 12.882812 C 7.101562 13.148438 6.695312 13.359375 6.679688 13.34375 C 6.664062 13.328125 6.875 12.921875 7.140625 12.4375 L 7.617188 11.554688 L 7.96875 11.601562 C 8.164062 11.632812 8.328125 11.664062 8.335938 11.671875 Z M 12.882812 12.429688 C 13.148438 12.90625 13.351562 13.3125 13.34375 13.328125 C 13.320312 13.34375 11.6875 12.46875 11.578125 12.375 C 11.5625 12.367188 11.578125 12.195312 11.601562 12 C 11.65625 11.632812 11.710938 11.601562 12.195312 11.570312 C 12.382812 11.5625 12.453125 11.648438 12.882812 12.429688 Z M 12.882812 12.429688 "/>
</g>
</svg>
