<?xml version="1.0" standalone="no"?>
<!DOCTYPE svg PUBLIC "-//W3C//DTD SVG 20010904//EN"
 "http://www.w3.org/TR/2001/REC-SVG-20010904/DTD/svg10.dtd">
<svg version="1.0" xmlns="http://www.w3.org/2000/svg"
 width="256.000000pt" height="256.000000pt" viewBox="0 0 256.000000 256.000000"
 preserveAspectRatio="xMidYMid meet">

<g transform="translate(0.000000,256.000000) scale(0.100000,-0.100000)"
fill="#000000" stroke="none">
<path d="M1190 1979 c-47 -171 -88 -315 -91 -321 -4 -7 -80 30 -199 96 -106
59 -194 105 -196 103 -2 -2 44 -90 102 -196 58 -106 104 -194 101 -197 -2 -3
-141 -43 -308 -90 -167 -46 -311 -87 -319 -90 -14 -6 96 -39 493 -148 75 -21
137 -42 137 -46 0 -4 -47 -92 -105 -195 -57 -104 -103 -191 -101 -193 3 -2 90
45 195 103 106 59 194 106 196 103 2 -2 44 -147 92 -321 48 -174 90 -317 93
-317 3 0 45 144 94 320 74 266 92 320 105 315 17 -7 305 -165 360 -198 19 -12
32 -17 29 -11 -115 203 -220 396 -216 399 2 2 147 44 321 92 174 48 317 90
317 93 0 3 -140 43 -311 90 -170 47 -315 88 -321 91 -6 4 32 82 97 199 59 105
105 194 102 196 -2 2 -88 -43 -192 -101 -103 -58 -190 -105 -195 -105 -6 0
-42 120 -147 502 -21 76 -40 138 -43 138 -3 0 -43 -140 -90 -311z m175 -283
l77 -258 -78 -79 -78 -79 339 -2 340 -3 -263 -79 -263 -79 -79 78 -80 79 -2
-339 -3 -339 -78 259 -77 259 80 81 80 80 0 344 c0 190 2 342 4 340 2 -2 39
-120 81 -263z m-395 -51 c58 -32 106 -60 108 -61 2 -1 0 -23 -3 -48 -7 -43 -9
-46 -49 -54 -22 -5 -44 -7 -47 -5 -7 3 -129 220 -129 229 0 3 3 3 8 1 4 -2 54
-30 112 -62z m694 -22 c-86 -162 -77 -152 -129 -140 -42 10 -46 13 -51 49 -4
20 -6 41 -6 45 1 8 210 130 225 132 5 1 -13 -38 -39 -86z m-469 -263 l80 -80
-340 1 c-187 0 -335 2 -330 5 11 4 497 152 505 153 3 1 41 -35 85 -79z m-128
-294 c2 -2 6 -23 9 -47 l6 -45 -112 -63 c-61 -34 -113 -61 -115 -59 -2 2 25
54 59 116 l61 113 45 -6 c25 -4 46 -8 47 -9z m582 -97 c34 -61 60 -113 59
-115 -3 -2 -212 110 -226 122 -2 1 0 23 3 48 7 47 14 51 76 55 24 1 33 -10 88
-110z"/>
</g>
</svg>
